# xmcd
#
# Track frame offsets: 
#        150
#        20034
#        49795
#        71806
#        87979
#        121887
#        139239
#        166497
#        174000
#        194097
#
# Disc length: 2749 seconds
#
# Revision: 1
# Processed by: cddbd v1.5.2PL0 Copyright (c) Steve Scherf et al.
# Submitted via: ExactAudioCopy v0.99pb1
#
DISCID=8e0abb0a
DTITLE=Carl Verheyen - Slang Justice
DYEAR=1996
DGENRE=Rock
TTITLE0=Down Like Hail
TTITLE1=Slang Justice
TTITLE2=Jet Plane Blues
TTITLE3=Two Trains Running
TTITLE4=Spotty Herbert
TTITLE5=Little Swamp
TTITLE6=Passing Through
TTITLE7=Loud Guy Blues
TTITLE8=Silence Is Golden (Sonny's Blues)
TTITLE9=Silence Is Golden (Part 2)
EXTD=
EXTT0=
EXTT1=
EXTT2=
EXTT3=
EXTT4=
EXTT5=
EXTT6=
EXTT7=
EXTT8=
EXTT9=
PLAYORDER=
